<svg xmlns="http://www.w3.org/2000/svg" viewBox="0 0 100 100">
  <defs>
    <linearGradient id="heartGradient" x1="0%" y1="0%" x2="100%" y2="100%">
      <stop offset="0%" style="stop-color:#0d9488;stop-opacity:1" />
      <stop offset="100%" style="stop-color:#14b8a6;stop-opacity:1" />
    </linearGradient>
  </defs>
  <circle cx="50" cy="50" r="48" fill="#f0fdfa" />
  <path 
    d="M50 75 C20 55 10 40 10 25 A15 15 0 0 1 40 25 C40 25 45 30 50 35 C55 30 60 25 60 25 A15 15 0 0 1 90 25 C90 40 80 55 50 75 Z" 
    fill="url(#heartGradient)" 
    stroke="#0f766e" 
    stroke-width="2"
  />
  <path 
    d="M50 35 C45 30 40 25 40 25 A15 15 0 0 0 10 25 C10 40 20 55 50 75 C80 55 90 40 90 25 A15 15 0 0 0 60 25 C60 25 55 30 50 35 Z" 
    fill="#0f766e" 
    opacity="0.3"
  />
</svg>